<?xml version="1.0" encoding="UTF-8" standalone="no"?>
<!-- Created with Inkscape (http://www.inkscape.org/) -->

<svg
   width="367.98163"
   height="393.12112"
   viewBox="0 0 367.98163 393.12112"
   version="1.1"
   id="svg1"
   xml:space="preserve"
   xmlns="http://www.w3.org/2000/svg"
   xmlns:svg="http://www.w3.org/2000/svg"><defs
     id="defs1" /><g
     id="layer1"
     transform="matrix(0.90805989,0,0,0.90805989,-53.016245,-36.727441)"><g
       id="g9"
       transform="matrix(3.6989357,0,0,3.6989357,-340.962,-58.040252)"
       style="fill:#005cbf;fill-opacity:0.824022"><path
         d="m 138.6628,137.53581 v -6.12996 h 9.07293 v 6.12996 c 0,3.37397 -0.0226,6.12996 -0.0568,6.12996 -0.034,0 -0.7712,-0.73717 -1.65011,-1.63879 -1.79194,-1.84289 -2.06979,-2.01869 -3.02237,-1.9223 -0.32889,0.034 -0.6748,0.14743 -0.89028,0.29487 -0.1928,0.13036 -1.00936,0.91863 -1.80893,1.75216 -0.80522,0.83358 -1.50276,1.51409 -1.54806,1.51409 -0.0511,0 -0.0907,-2.53476 -0.0907,-6.12996 z m -21.33226,-1.45733 c -2.59152,-0.29488 -5.15458,-1.22484 -6.81036,-2.478 -0.66913,-0.50468 -1.4913,-1.37227 -1.7976,-1.88833 l -0.18146,-0.30621 h 26.02842 v 4.786 l -8.25071,-0.0116 c -4.53646,-0.006 -8.58531,-0.0511 -8.99918,-0.0964 z m 34.59035,-2.27955 V 131.406 h 60.13101 l 0.0511,0.20413 c 0.2325,0.89596 1.29857,2.51777 2.46668,3.75953 l 0.7712,0.81656 -31.70444,0.006 H 151.9262 Z m -43.19294,-6.89543 c 0.32323,-0.56705 1.41764,-1.65011 2.20015,-2.17184 1.7976,-1.20215 3.83894,-1.90531 6.35671,-2.19449 0.60108,-0.0681 16.84226,-0.10205 49.27108,-0.10205 h 48.3812 l -0.46499,0.57273 c -1.02069,1.25887 -1.74084,2.48366 -2.14353,3.66314 l -0.17012,0.49901 -103.61283,0.0568 0.18146,-0.31755 z m -0.76552,-50.50209 c 0,-40.43622 0.017,-45.30221 0.15311,-45.82917 0.33456,-1.29288 1.33826,-2.42138 2.77297,-3.12442 1.49696,-0.73718 1.51976,-0.73718 6.16959,-0.78254 l 4.16223,-0.0397 v 1.57637 c 0,2.26257 0.67479,81.787 0.73151,86.27265 l 0.0511,3.74821 -2.46102,0.0624 c -1.44599,0.034 -2.89201,0.1247 -3.50447,0.22115 -2.77864,0.4253 -5.34736,1.37228 -7.3151,2.69357 -0.36859,0.24384 -0.68615,0.44797 -0.7145,0.44797 -0.0283,0 -0.0453,-20.35675 -0.0453,-45.23399 z m 18.14005,38.93375 c 0,-1.60482 -0.15879,-20.81693 -0.34591,-42.68776 -0.19279,-21.87664 -0.3459,-41.17948 -0.3459,-42.89245 v -3.1131 l 43.58924,0.0283 c 41.59901,0.0227 43.61828,0.034 44.18588,0.20413 1.91098,0.57273 3.24927,1.57071 3.95812,2.95444 l 0.32889,0.64078 0.0453,87.78093 h -91.41011 v -2.91466 z"
         id="path1"
         style="fill:#005cbf;fill-opacity:0.824022;stroke-width:1.45167" /></g><g
       id="g3"
       transform="matrix(-3.4135288,0,0,3.4135288,381.89702,98.548393)"
       style="fill:#ffb200;fill-opacity:1;stroke-width:0.999844;stroke-dasharray:none"><g
         data-name="09-Cheese"
         id="g2"
         style="fill:#ffb200;fill-opacity:1;stroke-width:0.999844;stroke-dasharray:none"><path
           d="M 62,25 H 2.69 L 37.45,2.16 A 1,1 0 0 1 38,2 23.73,23.73 0 0 1 62,25 Z"
           id="path1-0"
           style="fill:#ffb200;fill-opacity:1;stroke-width:0.999844;stroke-dasharray:none" /><circle
           cx="50"
           cy="51"
           r="4"
           id="circle1"
           style="fill:#ffb200;fill-opacity:1;stroke-width:0.999844;stroke-dasharray:none" /><path
           d="m 44,33 a 2,2 0 1 0 2,2 2,2 0 0 0 -2,-2 z m 0,0 a 2,2 0 1 0 2,2 2,2 0 0 0 -2,-2 z M 14,50 a 2,2 0 1 0 2,2 2,2 0 0 0 -2,-2 z m 18,-6 a 2,2 0 1 0 2,2 2,2 0 0 0 -2,-2 z M 44,33 a 2,2 0 1 0 2,2 2,2 0 0 0 -2,-2 z m 0,0 a 2,2 0 1 0 2,2 2,2 0 0 0 -2,-2 z M 32,44 a 2,2 0 1 0 2,2 2,2 0 0 0 -2,-2 z m -18,6 a 2,2 0 1 0 2,2 2,2 0 0 0 -2,-2 z M 2,27 v 13 a 1,1 0 0 0 1,1 3,3 0 0 1 0,6 1,1 0 0 0 -1,1 v 11 a 3,3 0 0 0 3,3 h 23 a 1,1 0 0 0 1,-1 3,3 0 0 1 6,0 1,1 0 0 0 1,1 h 23 a 3,3 0 0 0 3,-3 V 27 Z m 12,29 a 4,4 0 1 1 4,-4 4,4 0 0 1 -4,4 z m 5,-14 a 6,6 0 1 1 6,-6 6,6 0 0 1 -6,6 z m 13,8 a 4,4 0 1 1 4,-4 4,4 0 0 1 -4,4 z m 8,-15 a 4,4 0 1 1 4,4 4,4 0 0 1 -4,-4 z m 10,22 a 6,6 0 1 1 6,-6 6,6 0 0 1 -6,6 z M 46,35 a 2,2 0 1 0 -2,2 2,2 0 0 0 2,-2 z m -14,9 a 2,2 0 1 0 2,2 2,2 0 0 0 -2,-2 z M 19,32 a 4,4 0 1 0 4,4 4,4 0 0 0 -4,-4 z m -5,18 a 2,2 0 1 0 2,2 2,2 0 0 0 -2,-2 z m 18,-6 a 2,2 0 1 0 2,2 2,2 0 0 0 -2,-2 z M 44,33 a 2,2 0 1 0 2,2 2,2 0 0 0 -2,-2 z m 0,0 a 2,2 0 1 0 2,2 2,2 0 0 0 -2,-2 z M 32,44 a 2,2 0 1 0 2,2 2,2 0 0 0 -2,-2 z"
           id="path2-9"
           style="fill:#ffb200;fill-opacity:1;stroke-width:0.999844;stroke-dasharray:none" /></g></g></g></svg>
